<svg xmlns="http://www.w3.org/2000/svg" viewBox="0 0 256 256" role="img" aria-label="MarketAndMind favicon">
  <rect width="256" height="256" rx="36" fill="#000000"/>
  <g transform="matrix(0.397260 0 0 0.397260 -75.397260 -82.945205)" fill="#FFFFFF">
    <path d="M220 610        L220 440        Q220 404 256 404        Q272 404 284 416        L366 498        Q382 514 398 498        L484 412        Q512 384 540 412        L626 498        Q642 514 658 498        L740 416        Q752 404 768 404        Q804 404 804 440        L804 610        Q804 646 768 646        Q732 646 732 610        L732 516        L682 566        Q642 606 602 566        L512 476        L422 566        Q382 606 342 566        L292 516        L292 610        Q292 646 256 646        Q220 646 220 610        Z" />
    <rect x="476" y="532" width="72" height="126" rx="36" />
  </g>
</svg>
